<svg width="39" height="58" viewBox="0 0 39 58" fill="none" xmlns="http://www.w3.org/2000/svg">
<path fill-rule="evenodd" clip-rule="evenodd" d="M5.97067 14.7812V29.5623L5.17386 29.8508C3.00197 30.6374 1.2177 32.4639 0.319831 34.8197C0.0266218 35.5887 0 35.8146 0 37.5257C0 39.2369 0.0266218 39.4628 0.319831 40.2318C0.794092 41.476 1.37546 42.3849 2.28392 43.3025C3.22382 44.2515 4.10283 44.814 5.37476 45.2803C6.19634 45.5815 6.44185 45.612 8.0659 45.6139C9.69969 45.6158 9.93053 45.5873 10.757 45.2824C12.032 44.8121 12.9096 44.2499 13.8479 43.3025C14.7642 42.377 15.3482 41.4598 15.8028 40.2318C16.0523 39.558 16.1242 39.0986 16.1677 37.8991C16.1975 37.0777 16.1674 36.1672 16.1007 35.8759L15.9797 35.3463L20.905 30.6725L25.8301 25.9989L26.2225 26.2643C26.7123 26.5956 28.012 27.2164 28.446 27.3263L28.7717 27.409V42.7044V58H30.9286H33.0854V42.7155V27.4309L34.0406 27.0337C36.3838 26.0593 38.2054 23.9208 38.8292 21.4118C39.1309 20.1986 39.0189 17.8934 38.6039 16.7725C38.1492 15.5445 37.5653 14.6273 36.6489 13.7018C35.709 12.7528 34.83 12.1903 33.5581 11.724C32.7365 11.4228 32.491 11.3923 30.8669 11.3904C29.2331 11.3885 29.0023 11.417 28.1758 11.7218C26.9008 12.1922 26.0233 12.7544 25.085 13.7018C24.1765 14.6194 23.5951 15.5283 23.1209 16.7725C22.8273 17.5426 22.8012 17.7649 22.8028 19.4785C22.8041 20.8868 22.8527 21.469 23.0005 21.8481L23.1962 22.3508L18.4687 26.8256C15.8687 29.2869 13.6896 31.318 13.6263 31.3393C13.5629 31.3606 13.215 31.1504 12.853 30.8722C12.4909 30.5939 11.765 30.1879 11.2396 29.9698L10.2844 29.5734V14.7866V0H8.12752H5.97067V14.7812Z" fill="url(#paint0_linear)"/>
<defs>
<linearGradient id="paint0_linear" x1="19.5" y1="0" x2="19.5" y2="58" gradientUnits="userSpaceOnUse">
<stop offset="0.9999" stop-color="white"/>
<stop offset="1" stop-color="#00B2FF" stop-opacity="0"/>
</linearGradient>
</defs>
</svg>
