<svg width="129" height="132" viewBox="0 0 129 132" fill="none" xmlns="http://www.w3.org/2000/svg">
<path d="M43 68.75L56.4375 82.5L86 52.25" stroke="white" stroke-width="5" stroke-linecap="round"/>
<path d="M64.5 121C72.6657 121 79.4138 114.789 80.4787 106.732C80.5329 106.322 81.0327 106.118 81.3594 106.372C87.6795 111.29 96.7361 110.796 102.507 104.891C108.287 98.9768 108.762 89.69 103.932 83.2215C103.688 82.8947 103.892 82.4073 104.296 82.3517C112.175 81.2666 118.25 74.3592 118.25 66C118.25 57.6409 112.175 50.7336 104.297 49.6483C103.892 49.5927 103.688 49.1054 103.932 48.7785C108.762 42.3101 108.287 33.0233 102.507 27.1092C96.7363 21.2041 87.6796 20.7105 81.3594 25.6284C81.0328 25.8826 80.533 25.6784 80.4787 25.2681C79.414 17.211 72.6658 11 64.5 11C56.3342 11 49.5861 17.2109 48.5213 25.2678C48.4671 25.6782 47.9673 25.8824 47.6406 25.6282C41.3205 20.7104 32.2639 21.204 26.493 27.109C20.7133 33.0232 20.2384 42.31 25.0683 48.7785C25.3124 49.1053 25.1077 49.5927 24.7036 49.6483C16.8249 50.7334 10.75 57.6408 10.75 66C10.75 74.3591 16.8248 81.2664 24.7034 82.3516C25.1075 82.4073 25.3121 82.8946 25.068 83.2215C20.2382 89.6899 20.7132 98.9767 26.4929 104.891C32.2637 110.796 41.3204 111.289 47.6406 106.372C47.9672 106.117 48.467 106.322 48.5213 106.732C49.586 114.789 56.3342 121 64.5 121Z" stroke="white" stroke-width="5" stroke-linecap="round"/>
</svg>
